# xmcd
# 
# Track frame offsets:
#     150
#     19458
#     39661
#     72632
#     92522
#     117457
#     147724
#     193867
#     233337
#     257944
# 
# Disc length: 3978
# 
# Revision: 3
# Processed by: cddbd v1.5.2PL0 Copyright (c) Steve Scherf et al.
# Submitted via: fre:ac v1.0.31
# 
DISCID=980f880a
DTITLE=Blues - The Four Kings of Blues Guitar Disc 2
DYEAR=2009
DGENRE=Blues
TTITLE0=Going Down [Freddie King]
TTITLE1=Woman Across the River [Freddie King]
TTITLE2=Mojo Boogie [Freddie King]
TTITLE3=Messin' with the Kid [Freddie King]
TTITLE4=Key to the Highway [Freddie King]
TTITLE5=Blues Power [Albert King]
TTITLE6=Blues at Sunrise [Albert King]
TTITLE7=Match Box Blues [Albert King]
TTITLE8=Born Under a Bad Sign [Albert King]
TTITLE9=Angel of Mercy [Albert King]
EXTD=YEAR: 2009
EXTT0=
EXTT1=
EXTT2=
EXTT3=
EXTT4=
EXTT5=
EXTT6=
EXTT7=
EXTT8=
EXTT9=
PLAYORDER=
